<svg id="visual" viewBox="0 0 960 540" width="960" height="540" xmlns="http://www.w3.org/2000/svg" xmlns:xlink="http://www.w3.org/1999/xlink" version="1.1"><rect width="960" height="540" fill="#000c14"></rect><g><g transform="translate(847 151)"><path d="M0 -12.8L12.2 -4L7.6 10.4L-7.6 10.4L-12.2 -4Z" fill="#797979"></path></g><g transform="translate(759 344)"><path d="M0 -2L1.9 -0.6L1.2 1.6L-1.2 1.6L-1.9 -0.6Z" fill="#797979"></path></g><g transform="translate(552 525)"><path d="M0 -1L1 -0.3L0.6 0.8L-0.6 0.8L-1 -0.3Z" fill="#797979"></path></g><g transform="translate(316 314)"><path d="M0 -1L1 -0.3L0.6 0.8L-0.6 0.8L-1 -0.3Z" fill="#797979"></path></g><g transform="translate(43 309)"><path d="M0 -3L2.9 -0.9L1.8 2.4L-1.8 2.4L-2.9 -0.9Z" fill="#797979"></path></g><g transform="translate(663 276)"><path d="M0 -9L8.6 -2.8L5.3 7.3L-5.3 7.3L-8.6 -2.8Z" fill="#797979"></path></g><g transform="translate(62 332)"><path d="M0 -2L1.9 -0.6L1.2 1.6L-1.2 1.6L-1.9 -0.6Z" fill="#797979"></path></g><g transform="translate(269 423)"><path d="M0 -6L5.7 -1.9L3.5 4.9L-3.5 4.9L-5.7 -1.9Z" fill="#797979"></path></g><g transform="translate(20 122)"><path d="M0 -8L7.6 -2.5L4.7 6.5L-4.7 6.5L-7.6 -2.5Z" fill="#797979"></path></g><g transform="translate(769 477)"><path d="M0 -1L1 -0.3L0.6 0.8L-0.6 0.8L-1 -0.3Z" fill="#797979"></path></g><g transform="translate(812 233)"><path d="M0 -6L5.7 -1.9L3.5 4.9L-3.5 4.9L-5.7 -1.9Z" fill="#797979"></path></g><g transform="translate(294 116)"><path d="M0 -3L2.9 -0.9L1.8 2.4L-1.8 2.4L-2.9 -0.9Z" fill="#797979"></path></g><g transform="translate(923 215)"><path d="M0 -11L10.5 -3.4L6.5 8.9L-6.5 8.9L-10.5 -3.4Z" fill="#797979"></path></g><g transform="translate(686 38)"><path d="M0 -10L9.5 -3.1L5.9 8.1L-5.9 8.1L-9.5 -3.1Z" fill="#797979"></path></g><g transform="translate(599 13)"><path d="M0 -10L9.5 -3.1L5.9 8.1L-5.9 8.1L-9.5 -3.1Z" fill="#797979"></path></g><g transform="translate(807 401)"><path d="M0 -4L3.8 -1.2L2.4 3.2L-2.4 3.2L-3.8 -1.2Z" fill="#797979"></path></g><g transform="translate(448 256)"><path d="M0 -2L1.9 -0.6L1.2 1.6L-1.2 1.6L-1.9 -0.6Z" fill="#797979"></path></g><g transform="translate(790 149)"><path d="M0 -8L7.6 -2.5L4.7 6.5L-4.7 6.5L-7.6 -2.5Z" fill="#797979"></path></g><g transform="translate(100 517)"><path d="M0 -8L7.6 -2.5L4.7 6.5L-4.7 6.5L-7.6 -2.5Z" fill="#797979"></path></g><g transform="translate(252 511)"><path d="M0 -11L10.5 -3.4L6.5 8.9L-6.5 8.9L-10.5 -3.4Z" fill="#797979"></path></g><g transform="translate(196 54)"><path d="M0 -2L1.9 -0.6L1.2 1.6L-1.2 1.6L-1.9 -0.6Z" fill="#797979"></path></g><g transform="translate(238 84)"><path d="M0 -7L6.7 -2.2L4.1 5.7L-4.1 5.7L-6.7 -2.2Z" fill="#797979"></path></g><g transform="translate(252 199)"><path d="M0 -10L9.5 -3.1L5.9 8.1L-5.9 8.1L-9.5 -3.1Z" fill="#797979"></path></g><g transform="translate(240 315)"><path d="M0 -8L7.6 -2.5L4.7 6.5L-4.7 6.5L-7.6 -2.5Z" fill="#797979"></path></g><g transform="translate(936 60)"><path d="M0 -10L9.5 -3.1L5.9 8.1L-5.9 8.1L-9.5 -3.1Z" fill="#797979"></path></g><g transform="translate(518 332)"><path d="M0 -2L1.9 -0.6L1.2 1.6L-1.2 1.6L-1.9 -0.6Z" fill="#797979"></path></g><g transform="translate(449 19)"><path d="M0 -3L2.9 -0.9L1.8 2.4L-1.8 2.4L-2.9 -0.9Z" fill="#797979"></path></g><g transform="translate(624 97)"><path d="M0 -5L4.8 -1.5L2.9 4L-2.9 4L-4.8 -1.5Z" fill="#797979"></path></g><g transform="translate(154 401)"><path d="M0 -8L7.6 -2.5L4.7 6.5L-4.7 6.5L-7.6 -2.5Z" fill="#797979"></path></g><g transform="translate(716 215)"><path d="M0 -4L3.8 -1.2L2.4 3.2L-2.4 3.2L-3.8 -1.2Z" fill="#797979"></path></g><g transform="translate(874 41)"><path d="M0 -7L6.7 -2.2L4.1 5.7L-4.1 5.7L-6.7 -2.2Z" fill="#797979"></path></g><g transform="translate(902 447)"><path d="M0 -11L10.5 -3.4L6.5 8.9L-6.5 8.9L-10.5 -3.4Z" fill="#797979"></path></g><g transform="translate(647 25)"><path d="M0 -11L10.5 -3.4L6.5 8.9L-6.5 8.9L-10.5 -3.4Z" fill="#797979"></path></g><g transform="translate(665 307)"><path d="M0 -5L4.8 -1.5L2.9 4L-2.9 4L-4.8 -1.5Z" fill="#797979"></path></g><g transform="translate(120 265)"><path d="M0 -11L10.5 -3.4L6.5 8.9L-6.5 8.9L-10.5 -3.4Z" fill="#797979"></path></g><g transform="translate(598 352)"><path d="M0 -11L10.5 -3.4L6.5 8.9L-6.5 8.9L-10.5 -3.4Z" fill="#797979"></path></g><g transform="translate(777 522)"><path d="M0 -6L5.7 -1.9L3.5 4.9L-3.5 4.9L-5.7 -1.9Z" fill="#797979"></path></g></g></svg>